<svg id="visual" viewBox="0 0 960 300" width="960" height="300" xmlns="http://www.w3.org/2000/svg" xmlns:xlink="http://www.w3.org/1999/xlink" version="1.1"><rect x="0" y="0" width="960" height="300" fill="#eef8f7"></rect><path d="M0 96L20 86C40 76 80 56 120 61C160 66 200 96 240 114.3C280 132.7 320 139.3 360 122.5C400 105.7 440 65.3 480 53C520 40.7 560 56.3 600 54.8C640 53.3 680 34.7 720 47C760 59.3 800 102.7 840 115.2C880 127.7 920 109.3 940 100.2L960 91L960 301L940 301C920 301 880 301 840 301C800 301 760 301 720 301C680 301 640 301 600 301C560 301 520 301 480 301C440 301 400 301 360 301C320 301 280 301 240 301C200 301 160 301 120 301C80 301 40 301 20 301L0 301Z" fill="#3e5641"></path><path d="M0 96L20 107.7C40 119.3 80 142.7 120 154.3C160 166 200 166 240 167.3C280 168.7 320 171.3 360 165C400 158.7 440 143.3 480 145.8C520 148.3 560 168.7 600 165.7C640 162.7 680 136.3 720 126.5C760 116.7 800 123.3 840 116.8C880 110.3 920 90.7 940 80.8L960 71L960 301L940 301C920 301 880 301 840 301C800 301 760 301 720 301C680 301 640 301 600 301C560 301 520 301 480 301C440 301 400 301 360 301C320 301 280 301 240 301C200 301 160 301 120 301C80 301 40 301 20 301L0 301Z" fill="#58816b"></path><path d="M0 183L20 187.8C40 192.7 80 202.3 120 194C160 185.7 200 159.3 240 145.3C280 131.3 320 129.7 360 137.7C400 145.7 440 163.3 480 173.5C520 183.7 560 186.3 600 177.8C640 169.3 680 149.7 720 139.7C760 129.7 800 129.3 840 142.2C880 155 920 181 940 194L960 207L960 301L940 301C920 301 880 301 840 301C800 301 760 301 720 301C680 301 640 301 600 301C560 301 520 301 480 301C440 301 400 301 360 301C320 301 280 301 240 301C200 301 160 301 120 301C80 301 40 301 20 301L0 301Z" fill="#71ae9c"></path><path d="M0 189L20 190.8C40 192.7 80 196.3 120 202.8C160 209.3 200 218.7 240 227.5C280 236.3 320 244.7 360 251C400 257.3 440 261.7 480 254.5C520 247.3 560 228.7 600 215.7C640 202.7 680 195.3 720 194.5C760 193.7 800 199.3 840 216C880 232.7 920 260.3 940 274.2L960 288L960 301L940 301C920 301 880 301 840 301C800 301 760 301 720 301C680 301 640 301 600 301C560 301 520 301 480 301C440 301 400 301 360 301C320 301 280 301 240 301C200 301 160 301 120 301C80 301 40 301 20 301L0 301Z" fill="#8aded3"></path></svg>