<?xml version="1.0" encoding="UTF-8" standalone="no"?>
<svg
   version="1.1"
   x="0px"
   y="0px"
   viewBox="0 0 100 20"
   enable-background="new 0 0 100 100"
   xml:space="preserve"
   id="svg71"
   sodipodi:docname="divider1.svg"
   width="100"
   height="20"
   inkscape:version="1.1 (c68e22c387, 2021-05-23)"
   xmlns:inkscape="http://www.inkscape.org/namespaces/inkscape"
   xmlns:sodipodi="http://sodipodi.sourceforge.net/DTD/sodipodi-0.dtd"
   xmlns:xlink="http://www.w3.org/1999/xlink"
   xmlns="http://www.w3.org/2000/svg"
   xmlns:svg="http://www.w3.org/2000/svg"><defs
     id="defs75"><linearGradient
       id="linearGradient940"
       inkscape:swatch="solid"><stop
         style="stop-color:#ccd2b2;stop-opacity:1;"
         offset="0"
         id="stop938" /></linearGradient><linearGradient
       inkscape:collect="always"
       xlink:href="#linearGradient940"
       id="linearGradient17172"
       gradientUnits="userSpaceOnUse"
       x1="5.0010384"
       y1="49.998115"
       x2="94.998939"
       y2="49.998115"
       gradientTransform="translate(0.038302,-40.544638)" /></defs><sodipodi:namedview
     id="namedview73"
     pagecolor="#ffffff"
     bordercolor="#666666"
     borderopacity="1.0"
     inkscape:pageshadow="2"
     inkscape:pageopacity="0.0"
     inkscape:pagecheckerboard="0"
     showgrid="false"
     height="20px"
     showguides="true"
     inkscape:guide-bbox="true"
     inkscape:zoom="2.8114566"
     inkscape:cx="75.939285"
     inkscape:cy="0.17784376"
     inkscape:window-width="1366"
     inkscape:window-height="705"
     inkscape:window-x="-8"
     inkscape:window-y="-8"
     inkscape:window-maximized="1"
     inkscape:current-layer="svg71"><sodipodi:guide
       position="50.050302,50.55835"
       orientation="1,0"
       id="guide317" /><sodipodi:guide
       position="50.050302,9.9396378"
       orientation="0,-1"
       id="guide319" /></sodipodi:namedview><path
     d="m 92.612302,6.999362 c -1.866,-1.024 -4.108,-0.864 -6.149,-0.657 -0.051,0.005 -0.101,0.011 -0.152,0.017 0.908,-0.825 1.528,-1.963 1.675,-3.238 0.021,-0.183 -0.155,-0.4 -0.332,-0.436 -1.295,-0.263 -2.671,0.084 -3.627,1.019 -0.84,0.821 -1.226,1.977 -1.15,3.127 -4.26,0.711 -8.451,1.827 -12.673,2.744 1.104,-1.274 1.59,-3.061 1.193,-4.736 -0.057,-0.242 -0.326,-0.373 -0.556,-0.316 -2.47,0.612 -3.935,3.174 -3.24,5.584 -2.391,0.456 -4.799,0.809 -7.242,0.95 -2.906,0.167 -5.857,0.034 -8.697,-0.585 0.586,-0.21 1.164,-0.447 1.735,-0.706 0.139,0.042 0.291,0.028 0.401,-0.062 1.359,0.243 2.842,0.405 4.008,-0.487 0.467,-0.357 0.754,-0.827 0.938,-1.379 0.161,-0.483 0.219,-1.147 0.741,-1.374 0.386,-0.168 0.221,-0.714 -0.108,-0.826 -2.629,-0.893 -5.474,0.626 -6.227,3.251 -1.015,0.474 -2.05,0.861 -3.1,1.171 -1.066,-0.31 -2.11,-0.699 -3.126,-1.172 -0.753,-2.625 -3.598,-4.143 -6.227,-3.251 -0.327,0.111 -0.494,0.658 -0.108,0.826 0.523,0.228 0.58,0.89 0.741,1.374 0.184,0.554 0.47,1.022 0.938,1.379 1.166,0.891 2.649,0.73 4.008,0.486 0.109,0.089 0.261,0.104 0.399,0.062 0.579,0.263 1.165,0.501 1.756,0.713 -5.189,1.15 -10.684,0.62 -15.957,-0.382 0.688,-2.407 -0.776,-4.963 -3.243,-5.574 -0.231,-0.057 -0.498,0.073 -0.556,0.316 -0.396,1.67 0.086,3.451 1.183,4.724 -0.462,-0.1 -0.923,-0.203 -1.38,-0.306 -3.751,-0.852 -7.487,-1.798 -11.283,-2.427 0.076,-1.149 -0.31,-2.304 -1.15,-3.125 -0.956,-0.934 -2.332,-1.282 -3.627,-1.019 -0.175,0.036 -0.353,0.251 -0.332,0.436 0.145,1.265 0.758,2.395 1.654,3.219 -1.689,-0.201 -3.438,-0.305 -5.055,0.16 -1.599,0.46 -3.132,1.639 -3.548,3.316 -0.46,1.852 0.749,3.874 2.6,4.355 1.827,0.475 3.761,-0.699 4.333,-2.459 0.18,-0.555 -0.692,-0.792 -0.872,-0.24 -0.486,1.496 -2.332,2.379 -3.76,1.619 -1.46,-0.777 -1.906,-2.59 -1.02,-3.964 1.024,-1.586 2.987,-2.031 4.756,-2.033 1.542,-0.002 3.097,0.179 4.632,0.416 0.287,0.083 0.583,0.142 0.887,0.173 0.051,0.005 0.095,10e-4 0.137,-0.008 0.197,0.033 0.394,0.066 0.589,0.1 1.647,0.284 3.286,0.625 4.921,0.99 -1.283,0.364 -2.428,1.225 -3.047,2.43 -0.105,0.204 -0.067,0.508 0.162,0.618 1.442,0.697 3.178,1.188 4.71,0.468 1.045,-0.491 1.812,-1.538 1.838,-2.676 4.067,0.945 8.136,1.872 12.288,2.247 -1.504,0.793 -2.748,1.999 -3.559,3.517 -0.131,0.245 -0.026,0.599 0.27,0.664 1.422,0.314 3.099,0.583 4.268,-0.523 0.982,-0.929 0.853,-2.328 0.587,-3.544 0.53,0.029 1.062,0.048 1.595,0.056 2.896,0.043 5.802,-0.255 8.58,-1.034 3.295,0.926 6.739,1.156 10.181,0.971 -0.267,1.218 -0.398,2.62 0.586,3.551 1.168,1.106 2.846,0.837 4.268,0.523 0.296,-0.065 0.401,-0.419 0.27,-0.664 -0.813,-1.52 -2.06,-2.729 -3.568,-3.521 2.368,-0.209 4.724,-0.593 7.019,-1.061 1.766,-0.36 3.523,-0.767 5.278,-1.176 0.029,1.136 0.795,2.18 1.838,2.67 1.532,0.72 3.268,0.229 4.71,-0.468 0.228,-0.11 0.267,-0.415 0.162,-0.618 -0.618,-1.203 -1.761,-2.064 -3.041,-2.429 1.126,-0.252 2.254,-0.493 3.387,-0.712 0.705,-0.136 1.413,-0.263 2.122,-0.378 0.041,0.008 0.084,0.012 0.133,0.007 0.277,-0.029 0.547,-0.082 0.809,-0.154 1.067,-0.157 2.137,-0.284 3.212,-0.369 1.855,-0.147 3.961,-0.158 5.472,1.1 0.656,0.546 1.181,1.311 1.258,2.179 0.08,0.903 -0.363,1.806 -1.062,2.368 -1.434,1.154 -3.638,0.378 -4.194,-1.335 -0.179,-0.551 -1.052,-0.315 -0.872,0.24 0.51,1.57 2.112,2.702 3.78,2.552 1.66,-0.149 3.021,-1.557 3.23,-3.192 0.221,-1.72 -0.948,-3.276 -2.398,-4.072 z m -34.271,-0.674 c -0.302,0.554 -0.344,1.279 -0.721,1.809 -0.78,1.096 -2.318,0.922 -3.503,0.712 0.658,-1.73 2.402,-2.76 4.224,-2.521 z m -15.891,1.81 c -0.371,-0.532 -0.418,-1.256 -0.721,-1.809 1.822,-0.239 3.566,0.792 4.224,2.522 -1.18,0.208 -2.735,0.387 -3.503,-0.713 z m -29.395,-4.632 c 1.797,-0.126 3.348,1.38 3.253,3.185 -0.102,-0.015 -0.203,-0.031 -0.305,-0.046 -1.438,-0.426 -2.624,-1.672 -2.948,-3.139 z m 10.524,8.052 c -1.058,0.394 -2.229,0.107 -3.245,-0.328 1.034,-1.494 3.045,-2.143 4.767,-1.486 -0.087,0.814 -0.761,1.531 -1.522,1.814 z m 5.887,-6.007 c 1.716,0.677 2.619,2.518 2.133,4.309 -1.474,-0.88 -2.333,-2.608 -2.133,-4.309 z m 9.166,9.325 c -0.751,0.699 -1.838,0.603 -2.801,0.415 0.783,-1.219 1.894,-2.206 3.215,-2.812 0.17,0.841 0.237,1.79 -0.414,2.397 z m 31.972,-9.325 c 0.2,1.701 -0.659,3.429 -2.133,4.309 -0.486,-1.791 0.417,-3.632 2.133,-4.309 z m -6.365,9.74 c -0.963,0.188 -2.05,0.284 -2.801,-0.415 -0.651,-0.606 -0.585,-1.556 -0.415,-2.397 1.323,0.606 2.434,1.592 3.216,2.812 z m 15.498,-4.061 c -1.016,0.436 -2.187,0.722 -3.245,0.328 -0.762,-0.284 -1.436,-1 -1.521,-1.814 1.721,-0.657 3.732,-0.008 4.766,1.486 z m 7.279,-7.724 c -0.325,1.468 -1.511,2.714 -2.95,3.14 -0.101,0.015 -0.202,0.031 -0.303,0.046 -0.096,-1.806 1.455,-3.312 3.253,-3.186 z"
     id="path63"
     style="fill:url(#linearGradient17172);fill-opacity:1" /></svg>
