<?xml version="1.0" encoding="UTF-8" standalone="no"?>
<svg
   data-name="Action Full Source copy"
   viewBox="0 0 21 15"
   x="0px"
   y="0px"
   version="1.1"
   id="svg12"
   sodipodi:docname="email.svg"
   width="21"
   height="15"
   inkscape:version="1.1.1 (eb90963e84, 2021-10-02)"
   xmlns:inkscape="http://www.inkscape.org/namespaces/inkscape"
   xmlns:sodipodi="http://sodipodi.sourceforge.net/DTD/sodipodi-0.dtd"
   xmlns="http://www.w3.org/2000/svg"
   xmlns:svg="http://www.w3.org/2000/svg"
   xmlns:rdf="http://www.w3.org/1999/02/22-rdf-syntax-ns#"
   xmlns:cc="http://creativecommons.org/ns#"
   xmlns:dc="http://purl.org/dc/elements/1.1/">
  <defs
     id="defs16" />
  <sodipodi:namedview
     id="namedview14"
     pagecolor="#ffffff"
     bordercolor="#666666"
     borderopacity="1.0"
     inkscape:pageshadow="2"
     inkscape:pageopacity="0.0"
     inkscape:pagecheckerboard="0"
     showgrid="false"
     inkscape:zoom="16"
     inkscape:cx="7.28125"
     inkscape:cy="9.96875"
     inkscape:window-width="1366"
     inkscape:window-height="664"
     inkscape:window-x="0"
     inkscape:window-y="27"
     inkscape:window-maximized="1"
     inkscape:current-layer="svg12" />
  <title
     id="title2">Email</title>
  <path
     d="m 19.546554,0.08463001 -18.0000005,-0.06 A 1.498,1.498 0 0 0 0.04655353,1.52463 v 0.13 l 0.74999999,0.43 0.24999998,0.15 9.2500005,5.34 a 0.4967,0.4967 0 0 0 0.5,0 l 9.25,-5.34 0.25,-0.15 0.75,-0.43 v -0.07 a 1.498,1.498 0 0 0 -1.5,-1.49999999 z"
     id="path4" />
  <path
     d="m 20.046554,3.38463 -8.75,5.05 a 1.4443,1.4443 0 0 1 -1.4999999,0 l -8.7600006,-5.05 -0.73999997,-0.43 -0.25,-0.15 -0.04,10.78 a 1.4985,1.4985 0 0 0 0.44,1.06 1.4578,1.4578 0 0 0 1.05999997,0.44 H 19.546554 a 1.498,1.498 0 0 0 1.5,-1.5 v -10.77 l -0.25,0.14 z"
     id="path6" />
  <metadata
     id="metadata442">
    <rdf:RDF>
      <cc:Work
         rdf:about="">
        <dc:title>Email</dc:title>
      </cc:Work>
    </rdf:RDF>
  </metadata>
</svg>
