<svg id="visual" viewBox="0 0 960 300" width="960" height="300" xmlns="http://www.w3.org/2000/svg" xmlns:xlink="http://www.w3.org/1999/xlink" version="1.1"><rect x="0" y="0" width="960" height="300" fill="#8ADED3"></rect><path d="M0 73L40 103.8C80 134.7 160 196.3 240 197C320 197.7 400 137.3 480 132.7C560 128 640 179 720 186.2C800 193.3 880 156.7 920 138.3L960 120L960 301L920 301C880 301 800 301 720 301C640 301 560 301 480 301C400 301 320 301 240 301C160 301 80 301 40 301L0 301Z" fill="#eef8f7" stroke-linecap="round" stroke-linejoin="miter"></path></svg>