<svg id="visual" viewBox="0 0 540 960" width="540" height="960" xmlns="http://www.w3.org/2000/svg" xmlns:xlink="http://www.w3.org/1999/xlink" version="1.1"><rect x="0" y="0" width="540" height="960" fill="#eef8f7"></rect><defs><linearGradient id="grad1_0" x1="0%" y1="0%" x2="100%" y2="100%"><stop offset="30%" stop-color="#2d4654" stop-opacity="1"></stop><stop offset="70%" stop-color="#2d4654" stop-opacity="1"></stop></linearGradient></defs><defs><linearGradient id="grad1_1" x1="0%" y1="0%" x2="100%" y2="100%"><stop offset="30%" stop-color="#2d4654" stop-opacity="1"></stop><stop offset="70%" stop-color="#869ba0" stop-opacity="1"></stop></linearGradient></defs><defs><linearGradient id="grad1_2" x1="0%" y1="0%" x2="100%" y2="100%"><stop offset="30%" stop-color="#eef8f7" stop-opacity="1"></stop><stop offset="70%" stop-color="#869ba0" stop-opacity="1"></stop></linearGradient></defs><defs><linearGradient id="grad2_0" x1="0%" y1="0%" x2="100%" y2="100%"><stop offset="30%" stop-color="#2d4654" stop-opacity="1"></stop><stop offset="70%" stop-color="#2d4654" stop-opacity="1"></stop></linearGradient></defs><defs><linearGradient id="grad2_1" x1="0%" y1="0%" x2="100%" y2="100%"><stop offset="30%" stop-color="#869ba0" stop-opacity="1"></stop><stop offset="70%" stop-color="#2d4654" stop-opacity="1"></stop></linearGradient></defs><defs><linearGradient id="grad2_2" x1="0%" y1="0%" x2="100%" y2="100%"><stop offset="30%" stop-color="#869ba0" stop-opacity="1"></stop><stop offset="70%" stop-color="#eef8f7" stop-opacity="1"></stop></linearGradient></defs><g transform="translate(540, 0)"><path d="M0 324C-23.7 258.9 -47.3 193.8 -101 174.9C-154.7 156.1 -238.4 183.4 -280.6 162C-322.8 140.6 -323.4 70.3 -324 0L0 0Z" fill="#b9c9ca"></path><path d="M0 216C-15.8 172.6 -31.5 129.2 -67.3 116.6C-103.1 104 -158.9 122.3 -187.1 108C-215.2 93.7 -215.6 46.9 -216 0L0 0Z" fill="#576f79"></path><path d="M0 108C-7.9 86.3 -15.8 64.6 -33.7 58.3C-51.6 52 -79.5 61.1 -93.5 54C-107.6 46.9 -107.8 23.4 -108 0L0 0Z" fill="#2d4654"></path></g><g transform="translate(0, 960)"><path d="M0 -324C29.3 -268.6 58.5 -213.2 111.5 -193.1C164.5 -173 241.2 -188.3 280.6 -162C320 -135.7 322 -67.9 324 0L0 0Z" fill="#b9c9ca"></path><path d="M0 -216C19.5 -179.1 39 -142.1 74.3 -128.7C109.7 -115.4 160.8 -125.5 187.1 -108C213.3 -90.5 214.7 -45.2 216 0L0 0Z" fill="#576f79"></path><path d="M0 -108C9.8 -89.5 19.5 -71.1 37.2 -64.4C54.8 -57.7 80.4 -62.8 93.5 -54C106.7 -45.2 107.3 -22.6 108 0L0 0Z" fill="#2d4654"></path></g></svg>