<svg id="visual" viewBox="0 0 960 300" width="960" height="300" xmlns="http://www.w3.org/2000/svg" xmlns:xlink="http://www.w3.org/1999/xlink" version="1.1"><rect x="0" y="0" width="960" height="300" fill="#eef8f7"></rect><path d="M0 199L20 210.7C40 222.3 80 245.7 120 256C160 266.3 200 263.7 240 244C280 224.3 320 187.7 360 183.3C400 179 440 207 480 216.8C520 226.7 560 218.3 600 217.7C640 217 680 224 720 234.2C760 244.3 800 257.7 840 257C880 256.3 920 241.7 940 234.3L960 227L960 0L940 0C920 0 880 0 840 0C800 0 760 0 720 0C680 0 640 0 600 0C560 0 520 0 480 0C440 0 400 0 360 0C320 0 280 0 240 0C200 0 160 0 120 0C80 0 40 0 20 0L0 0Z" fill="#3e5641"></path><path d="M0 151L20 148C40 145 80 139 120 140.3C160 141.7 200 150.3 240 165.5C280 180.7 320 202.3 360 209C400 215.7 440 207.3 480 204C520 200.7 560 202.3 600 195.3C640 188.3 680 172.7 720 161.7C760 150.7 800 144.3 840 136.2C880 128 920 118 940 113L960 108L960 0L940 0C920 0 880 0 840 0C800 0 760 0 720 0C680 0 640 0 600 0C560 0 520 0 480 0C440 0 400 0 360 0C320 0 280 0 240 0C200 0 160 0 120 0C80 0 40 0 20 0L0 0Z" fill="#58816b"></path><path d="M0 120L20 122.3C40 124.7 80 129.3 120 133.3C160 137.3 200 140.7 240 146.8C280 153 320 162 360 163.3C400 164.7 440 158.3 480 142.5C520 126.7 560 101.3 600 87.2C640 73 680 70 720 72.8C760 75.7 800 84.3 840 92.8C880 101.3 920 109.7 940 113.8L960 118L960 0L940 0C920 0 880 0 840 0C800 0 760 0 720 0C680 0 640 0 600 0C560 0 520 0 480 0C440 0 400 0 360 0C320 0 280 0 240 0C200 0 160 0 120 0C80 0 40 0 20 0L0 0Z" fill="#71ae9c"></path><path d="M0 54L20 63.7C40 73.3 80 92.7 120 96C160 99.3 200 86.7 240 82.3C280 78 320 82 360 79.2C400 76.3 440 66.7 480 60.7C520 54.7 560 52.3 600 61.7C640 71 680 92 720 89.5C760 87 800 61 840 46C880 31 920 27 940 25L960 23L960 0L940 0C920 0 880 0 840 0C800 0 760 0 720 0C680 0 640 0 600 0C560 0 520 0 480 0C440 0 400 0 360 0C320 0 280 0 240 0C200 0 160 0 120 0C80 0 40 0 20 0L0 0Z" fill="#8aded3"></path></svg>