<svg id="visual" viewBox="0 0 960 540" width="960" height="540" xmlns="http://www.w3.org/2000/svg" xmlns:xlink="http://www.w3.org/1999/xlink" version="1.1"><rect x="0" y="0" width="960" height="540" fill="#eef8f7"></rect><defs><linearGradient id="grad1_0" x1="43.8%" y1="0%" x2="100%" y2="100%"><stop offset="14.444444444444446%" stop-color="#2d4654" stop-opacity="1"></stop><stop offset="85.55555555555554%" stop-color="#2d4654" stop-opacity="1"></stop></linearGradient></defs><defs><linearGradient id="grad1_1" x1="43.8%" y1="0%" x2="100%" y2="100%"><stop offset="14.444444444444446%" stop-color="#2d4654" stop-opacity="1"></stop><stop offset="85.55555555555554%" stop-color="#869ba0" stop-opacity="1"></stop></linearGradient></defs><defs><linearGradient id="grad1_2" x1="43.8%" y1="0%" x2="100%" y2="100%"><stop offset="14.444444444444446%" stop-color="#eef8f7" stop-opacity="1"></stop><stop offset="85.55555555555554%" stop-color="#869ba0" stop-opacity="1"></stop></linearGradient></defs><defs><linearGradient id="grad2_0" x1="0%" y1="0%" x2="56.3%" y2="100%"><stop offset="14.444444444444446%" stop-color="#2d4654" stop-opacity="1"></stop><stop offset="85.55555555555554%" stop-color="#2d4654" stop-opacity="1"></stop></linearGradient></defs><defs><linearGradient id="grad2_1" x1="0%" y1="0%" x2="56.3%" y2="100%"><stop offset="14.444444444444446%" stop-color="#869ba0" stop-opacity="1"></stop><stop offset="85.55555555555554%" stop-color="#2d4654" stop-opacity="1"></stop></linearGradient></defs><defs><linearGradient id="grad2_2" x1="0%" y1="0%" x2="56.3%" y2="100%"><stop offset="14.444444444444446%" stop-color="#869ba0" stop-opacity="1"></stop><stop offset="85.55555555555554%" stop-color="#eef8f7" stop-opacity="1"></stop></linearGradient></defs><g transform="translate(960, 0)"><path d="M0 324C-21 254.3 -42 184.6 -96 166.3C-150 148 -237.1 181.1 -280.6 162C-324.1 142.9 -324 71.4 -324 0L0 0Z" fill="#b9c9ca"></path><path d="M0 216C-14 169.5 -28 123 -64 110.9C-100 98.7 -158.1 120.8 -187.1 108C-216.1 95.2 -216 47.6 -216 0L0 0Z" fill="#576f79"></path><path d="M0 108C-7 84.8 -14 61.5 -32 55.4C-50 49.3 -79 60.4 -93.5 54C-108 47.6 -108 23.8 -108 0L0 0Z" fill="#2d4654"></path></g><g transform="translate(0, 540)"><path d="M0 -324C24.2 -259.8 48.4 -195.6 102 -176.7C155.6 -157.7 238.7 -183.9 280.6 -162C322.5 -140.1 323.2 -70 324 0L0 0Z" fill="#b9c9ca"></path><path d="M0 -216C16.1 -173.2 32.3 -130.4 68 -117.8C103.7 -105.1 159.1 -122.6 187.1 -108C215 -93.4 215.5 -46.7 216 0L0 0Z" fill="#576f79"></path><path d="M0 -108C8.1 -86.6 16.1 -65.2 34 -58.9C51.9 -52.6 79.6 -61.3 93.5 -54C107.5 -46.7 107.7 -23.3 108 0L0 0Z" fill="#2d4654"></path></g></svg>